# xmcd
#
# Track frame offsets:
# 150
# 17931
# 34317
# 53115
# 71039
# 88667
# 106297
# 125528
# 139916
# 154623
# 173286
# 187929
#
# Disc length: 2741 seconds
#
#
# Revision: 0
# Processed by: cddbd v1.5PL3 Copyright (c) Steve Scherf et al.
# Submitted via: FreeRIP 2.53 
#
DISCID=9c0ab30c
DTITLE=Lonestar - I'm Already There
DYEAR=1900
DGENRE=Country
TTITLE0=Out Go The Lights
TTITLE1=Unusually Unusual
TTITLE2=Not A Day Goes By
TTITLE3=I Want To Be THe One
TTITLE4=With Me
TTITLE5=Without You
TTITLE6=I'm Already There
TTITLE7=Let's Bring It Back
TTITLE8=Must Be Love
TTITLE9=Softly
TTITLE10=Every Little Thing She Does
TTITLE11=Like A Good Cowboy
EXTD=
EXTT0=
EXTT1=
EXTT2=
EXTT3=
EXTT4=
EXTT5=
EXTT6=
EXTT7=
EXTT8=
EXTT9=
EXTT10=
EXTT11=
PLAYORDER=
